<svg xmlns="http://www.w3.org/2000/svg" viewBox="0 0 512 512">
  <defs>
    <linearGradient id="bg" x1="0" y1="0" x2="1" y2="1">
      <stop offset="0" stop-color="#ffc2dd"/>
      <stop offset="0.55" stop-color="#ff7aa8"/>
      <stop offset="1" stop-color="#a66bff"/>
    </linearGradient>
    <radialGradient id="body" cx="38%" cy="30%" r="75%">
      <stop offset="0" stop-color="#ffd6e3"/>
      <stop offset="0.45" stop-color="#ff4d7e"/>
      <stop offset="1" stop-color="#b8134f"/>
    </radialGradient>
    <linearGradient id="gloss" x1="0" y1="0" x2="0" y2="1">
      <stop offset="0" stop-color="#fff" stop-opacity="0.95"/>
      <stop offset="1" stop-color="#fff" stop-opacity="0"/>
    </linearGradient>
    <filter id="shadow" x="-20%" y="-20%" width="140%" height="150%">
      <feDropShadow dx="0" dy="14" stdDeviation="14" flood-color="#6a1f5a" flood-opacity="0.35"/>
    </filter>
    <clipPath id="heart"><path d="M256 420 C 116 330 56 240 96 155 C 136 75 226 80 256 150 C 286 80 376 75 416 155 C 456 240 396 330 256 420 Z"/></clipPath>
  </defs>
  <rect width="512" height="512" fill="url(#bg)"/>
  <circle cx="92" cy="96" r="18" fill="#fff" opacity="0.6"/>
  <circle cx="430" cy="420" r="12" fill="#fff" opacity="0.5"/>
  <g filter="url(#shadow)">
    <path d="M256 420 C 116 330 56 240 96 155 C 136 75 226 80 256 150 C 286 80 376 75 416 155 C 456 240 396 330 256 420 Z" fill="url(#body)"/>
  </g>
  <g clip-path="url(#heart)">
    <ellipse cx="200" cy="170" rx="90" ry="44" fill="url(#gloss)" transform="rotate(-18 200 170)"/>
  </g>
  <circle cx="352" cy="150" r="16" fill="#fff" opacity="0.9"/>
  <polygon points="410,250 420,276 446,280 426,298 432,324 410,310 388,324 394,298 374,280 400,276" fill="#ffd43b" stroke="#fff" stroke-width="6" stroke-linejoin="round"/>
</svg>
